<?xml version="1.0" encoding="UTF-8" standalone="no"?>
<!DOCTYPE svg PUBLIC "-//W3C//DTD SVG 1.0//EN" "http://www.w3.org/TR/2001/PR-SVG-20010719/DTD/svg10.dtd">
<svg width="39cm" height="21cm" viewBox="64 3410 773 405" xmlns="http://www.w3.org/2000/svg" xmlns:xlink="http://www.w3.org/1999/xlink">
  <rect style="fill: none; fill-opacity:0; stroke-width: 4; stroke-linejoin: round; stroke: #000000" x="66.4" y="3412.4" width="764" height="400" rx="16" ry="16"/>
  <rect style="fill: none; fill-opacity:0; stroke-width: 4; stroke: #000000" x="374.912" y="3421.12" width="150.868" height="26.7894"/>
  <text style="fill: #000000;text-anchor:middle;font-size:18.446;font-family:sanserif;font-style:normal;font-weight:normal" x="450.346" y="3440.92">
    <tspan x="450.346" y="3440.92">Architecture</tspan>
  </text>
  <g>
    <rect style="fill: #99ff99" x="87.4" y="3566.4" width="172" height="118" rx="16" ry="16"/>
    <rect style="fill: none; fill-opacity:0; stroke-width: 4; stroke-linejoin: round; stroke: #000000" x="87.4" y="3566.4" width="172" height="118" rx="16" ry="16"/>
  </g>
  <g>
    <rect style="fill: #99ff99" x="98.8316" y="3594.65" width="154.85" height="21.5"/>
    <text style="fill: #000000;text-anchor:middle;font-size:18.446;font-family:sanserif;font-style:normal;font-weight:700" x="176.257" y="3611.8">
      <tspan x="176.257" y="3611.8">DIYABC CLIENT</tspan>
    </text>
  </g>
  <g>
    <rect style="fill: #ff7474" x="554.8" y="3565.8" width="172" height="118" rx="16" ry="16"/>
    <rect style="fill: none; fill-opacity:0; stroke-width: 4; stroke-linejoin: round; stroke: #000000" x="554.8" y="3565.8" width="172" height="118" rx="16" ry="16"/>
  </g>
  <g>
    <rect style="fill: #ff7474" x="570.982" y="3586.91" width="145.35" height="21.5"/>
    <text style="fill: #000000;text-anchor:middle;font-size:18.446;font-family:sanserif;font-style:normal;font-weight:normal" x="643.657" y="3604.06">
      <tspan x="643.657" y="3604.06">DIYABC SERVER</tspan>
    </text>
  </g>
  <g>
    <line style="fill: none; fill-opacity:0; stroke-width: 4; stroke-linejoin: round; stroke: #000000" x1="254.714" y1="3571.08" x2="547.514" y2="3570.5"/>
    <polygon style="fill: #000000" points="555.014,3570.49 545.024,3575.51 547.514,3570.5 545.004,3565.51 "/>
    <polygon style="fill: none; fill-opacity:0; stroke-width: 4; stroke: #000000" points="555.014,3570.49 545.024,3575.51 547.514,3570.5 545.004,3565.51 "/>
  </g>
  <g>
    <line style="fill: none; fill-opacity:0; stroke-width: 4; stroke: #000000" x1="559.486" y1="3679.12" x2="266.686" y2="3679.7"/>
    <polygon style="fill: #000000" points="259.186,3679.71 269.176,3674.69 266.686,3679.7 269.196,3684.69 "/>
    <polygon style="fill: none; fill-opacity:0; stroke-width: 4; stroke: #000000" points="259.186,3679.71 269.176,3674.69 266.686,3679.7 269.196,3684.69 "/>
  </g>
  <text style="fill: #000000;text-anchor:start;font-size:16.1883;font-family:sanserif;font-style:normal;font-weight:700" x="350.652" y="3673.28">
    <tspan x="350.652" y="3673.28">Analysis results</tspan>
  </text>
  <text style="fill: #000000;text-anchor:start;font-size:16.1883;font-family:sanserif;font-style:normal;font-weight:700" x="574.678" y="3503.3">
    <tspan x="574.678" y="3503.3">Reference table production, </tspan>
    <tspan x="574.678" y="3523.54">analysis computation ...</tspan>
  </text>
  <g>
    <polyline style="fill: none; fill-opacity:0; stroke-width: 4; stroke: #000000" points="640.8,3565.8 640.8,3532.4 795.4,3532.4 795.4,3624.8 740.716,3624.8 "/>
    <polygon style="fill: #000000" points="733.216,3624.8 743.216,3619.8 740.716,3624.8 743.216,3629.8 "/>
    <polygon style="fill: none; fill-opacity:0; stroke-width: 4; stroke: #000000" points="733.216,3624.8 743.216,3619.8 740.716,3624.8 743.216,3629.8 "/>
  </g>
  <text style="fill: #000000;text-anchor:start;font-size:18.446;font-family:sanserif;font-style:normal;font-weight:normal" x="148.259" y="3644.83">
    <tspan x="148.259" y="3644.83">(GUI)</tspan>
  </text>
  <text style="fill: #000000;text-anchor:start;font-size:16.1883;font-family:sanserif;font-style:normal;font-weight:700" x="313.474" y="3564.89">
    <tspan x="313.474" y="3564.89">Data file, header file,</tspan>
    <tspan x="313.474" y="3585.13">task requirement</tspan>
  </text>
  <text style="fill: #000000;text-anchor:start;font-size:16.1883;font-family:sanserif;font-style:normal;font-weight:700" x="118.467" y="3669.53">
    <tspan x="118.467" y="3669.53">Python/Qt4</tspan>
  </text>
  <text style="fill: #000000;text-anchor:start;font-size:16.1883;font-family:sanserif;font-style:normal;font-weight:700" x="617.698" y="3646.3">
    <tspan x="617.698" y="3646.3">C++</tspan>
  </text>
</svg>
