/* XPM */
static char *coccicon[] = {
/* columns rows colors chars-per-pixel */
"32 32 173 2",
"   c #1C8E1BB814FC",
".  c #1DB21D301B18",
"X  c #20451EDE165F",
"o  c #20711F391845",
"O  c #272523D516A2",
"+  c #286024A21663",
"@  c #248F22C51AC1",
"#  c #29EB267F1967",
"$  c #321D2C071766",
"%  c #32C02CCB180E",
"&  c #36982FD4192A",
"*  c #3A6B34351F15",
"=  c #24C523C4216C",
"-  c #2CD72B352498",
";  c #2EB22DBF288B",
":  c #30402EDA2B86",
">  c #3606311A247E",
",  c #3E4538FE2768",
"<  c #31E3305A296A",
"1  c #38B136922D0B",
"2  c #3EEC397D29BD",
"3  c #2D842CEE3004",
"4  c #3DF63C5F351B",
"5  c #3CC93BBC3BC2",
"6  c #408137541996",
"7  c #426139351C52",
"8  c #485D3D791C06",
"9  c #40D539732F4E",
"0  c #43A93ED936DD",
"q  c #512944141C55",
"w  c #568F482B1C49",
"e  c #5B9B4C131D83",
"r  c #666E54401E48",
"t  c #6973569D1EAD",
"y  c #6DF859C81ED9",
"u  c #560848BF2137",
"i  c #5E564FA92421",
"p  c #45FC40EB33EA",
"a  c #44E4427E3AB6",
"s  c #562D4E363DE9",
"d  c #5B8B513E3410",
"f  c #615351CA236C",
"g  c #6DE65AD1233F",
"h  c #72C15FA32820",
"j  c #61E354CE3074",
"k  c #76D661F924F0",
"l  c #7D50667223F4",
"z  c #7D2E679328FC",
"x  c #7FD56AAB2F2A",
"c  c #72E36127317F",
"v  c #399A3AFB4458",
"b  c #43C9426E426D",
"n  c #49ED47AE4388",
"m  c #4D9D4B234511",
"M  c #40F843704E4E",
"N  c #4C2A4ABC4BAA",
"B  c #504D4D734A72",
"V  c #51FA4FE445A8",
"C  c #54A951A74AD6",
"Z  c #4D2C4CFC51DE",
"A  c #47374AA85BC9",
"S  c #4F7950D45A97",
"D  c #568A54CA544B",
"F  c #5E1F5B2B5081",
"G  c #562F54D45D24",
"H  c #5D5E5B575CD6",
"J  c #610C5EBE5A14",
"K  c #6C38642D5035",
"L  c #6CE566985EB0",
"P  c #756A6C5D558C",
"I  c #7E6673685CB1",
"U  c #5DCC5D0560E0",
"Y  c #545D59D2711A",
"T  c #697666B26138",
"R  c #6BDC69B160DF",
"E  c #710C6FA86B49",
"W  c #6B296CC578AC",
"Q  c #7A0F792B7335",
"!  c #865B6D2023FE",
"~  c #87856F062926",
"^  c #8E0A72B624EC",
"/  c #8C4A729C2940",
"(  c #91B275F72666",
")  c #95B778B825CF",
"_  c #9D1B7DFB261E",
"`  c #909C756A2840",
"'  c #94E079B52D39",
"]  c #9B307DD92B05",
"[  c #83C16EA93026",
"{  c #8A427358316B",
"}  c #94837B4B3213",
"|  c #9B347F6F3088",
" . c #85A17CFE6968",
".. c #80F47D9E6FF2",
"X. c #9F6082D53255",
"o. c #98FE81273E1B",
"O. c #A42E834B2677",
"+. c #A8E68699279B",
"@. c #AD128A012754",
"#. c #A31483932AD3",
"$. c #A7D388FC2F56",
"%. c #ABFB8A712B5C",
"&. c #B0CD8D192780",
"*. c #B18C8E072985",
"=. c #B5E891DC2AA6",
"-. c #BB7F95712906",
";. c #BED798AD2B53",
":. c #A226848C31A3",
">. c #AC328C7632FD",
",. c #AF7A902B39CB",
"<. c #B25991B233BA",
"1. c #BA88969F3282",
"2. c #C3BC9BDC2A17",
"3. c #C8EE9F712A1E",
"4. c #CD20A2B82AFE",
"5. c #D284A6C82B6E",
"6. c #D5B4A9352BD9",
"7. c #DBF9AE1B2CBA",
"8. c #DEFCB0B02D91",
"9. c #C406A2543F64",
"0. c #CE14A6C43B5F",
"q. c #DFE2B2113179",
"w. c #E429B4D62DC5",
"e. c #E872B7F32E9F",
"r. c #E9C6B9152F17",
"t. c #E5A4B6C431DA",
"y. c #E780B84A30D1",
"u. c #EB79BACC3250",
"i. c #E2F4B6753A42",
"p. c #ECABBDA039E9",
"a. c #B63A9A3D44B2",
"s. c #AD9E96365300",
"d. c #83F2826B7E9B",
"f. c #D73CB2694BE8",
"g. c #C7FFAA7A54A2",
"h. c #E580BA084216",
"j. c #D2E3BCB1719E",
"k. c #EAEDC172457F",
"l. c #EA83C2824C0B",
"z. c #EDCACA9659FB",
"x. c #F1C1CE315B2B",
"c. c #DF1FC0C669B7",
"v. c #DFCEC3DB7408",
"b. c #E138C25167C0",
"n. c #F225CF58612F",
"m. c #69377083896F",
"M. c #781080EF998F",
"N. c #A0949A958822",
"B. c #B59DA7A78D13",
"V. c #A81CA613A063",
"C. c #BAFEB91DAA09",
"Z. c #BC2BBBA0B808",
"A. c #EF8CD7AE8298",
"S. c #F763E3388F20",
"D. c #F9E9E832989B",
"F. c #FCDCECF99FF2",
"G. c #F614E6D3A2C9",
"H. c #F9DFEE68B158",
"J. c #B1C3BE1FD85D",
"K. c #CCFACC44C3F8",
"L. c #E104DF0AD143",
"P. c #E09FDFCFD9FC",
"I. c #FD0DF563C0F4",
"U. c #FD63F730CB7F",
"Y. c #FE10F9AACEEB",
"T. c #FDDCFA8FD866",
"R. c #EBD3EB72E604",
"E. c #F535F40DE502",
"W. c #FEDEFD92E5B8",
"Q. c #F4FDF49CE9F7",
"!. c #FD06FD0FF45E",
"~. c #FDE7FE8CF928",
"^. c None",
/* pixels */
"^.^.^.^.^.^.^.^.^.^.^.^.^.^.^.^.^.^.^.^.^.^.^.^.^.^.^.^.^.^.^.^.",
"^.^.^.^.^.^.^.^.^.^.^.^.^.^.^.^.^.^.^.^.^.^.^.^.^.^.^.^.^.^.^.^.",
"^.^.^.^.^.^.^.C ^.^.^.^.^.^.^.^.^.^.^.^.^.^.^.^.^.^.^.^.^.^.^.^.",
"^.^.^.^.^.^.^.m ^.^.^.^.^.^.^.^.^.^.^.^.^.^.^.^.m ^.^.^.^.^.^.^.",
"^.^.^.^.^.^.^.D ^.^.^.^.^.K C - < L  .^.^.^.^.^.^.^.^.^.^.^.^.^.",
"^.^.^.^.^.^.^.W ^.^.^.L.C < m < < B - n ^.^.^.^.U ^.^.^.^.^.^.^.",
"^.^.^.^.^.^.^.G ^.^.!.~.Z.4 X X o @ - V.!.E.^.^.D ^.^.^.^.^.^.^.",
"^.^.^.^.^.^.^.^.^.K.R.P.Q       v m.M d.R.Q.C.5 ^.^.^.^.^.^.^.^.",
"^.^.^.^.^.^.^.^.^.T V 1 @     @ A J.M.: a R E ^.^.^.^.^.^.^.^.^.",
"^.^.^.^.^.^.^.^.g.j +           3 Y A = @ @ d ^.^.^.^.^.^.^.^.^.",
"^.^.^.^.^.^.^.g.<.-.O.) / I F * 2 L P k ! _ +.$.a.^.^.^.^.^.^.^.",
"^.^.^.^.^.^.^.<.;.4.6.8.t.b.Q , , N.c.8.8.4.2.@.>.^.^.^.^.^.^.^.",
"^.^.^.^.^.2 X.=.4.5.8.8.y.!       # +.w.7.6.4.-.$.~ 1 ^.^.^.^.^.",
"^.^.^.S 5 ^.:.^ ;.6.q.t.t.f   @     ! y.w.7.5.&.( :.p b ^.^.^.^.",
"^.^.Z Z ^.^.g @ ~ 8.t.k.x.s.p > # & -.y.w.7.5.r $ / ^.N Z ^.^.^.",
"^.m n ^.^.^.u . k q.k.S.U.H.j.s.>.;.y.y.w.8.3.*   h ^.^.^.m ^.^.",
"R C ^.^.^.^.l 7 $.q.z.I.!.W.G.v.h.p.u.y.w.7.5.y $ ) ^.^.^.^.C ^.",
"^.^.^.^.^.^.*.*.5.q.h.D.T.Y.D.b.h.u.r.8.7.7.6.2.O.%.^.^.^.^.^.^.",
"^.^.^.^.^.^.1.2.5.7.$. .B.A.x.f.i.r.2.e r 2.5.3.*.%.^.^.^.^.^.^.",
"^.^.^.^.^.^.1.;.5.5.q . 0 0.p.0.t.r.k     ^ 5.-.@.>.^.^.^.^.^.^.",
"^.^.^.^.^.^.1.=.4.5.t X w 7.e.4.8.y._ + + _ 4.-.#.>.^.^.^.^.^.^.",
"^.^.^.^.^.^.1.*.2.5.3._ 3.w.w.3.8.w.7.O._ 3.2.&.O.<.^.^.^.^.^.^.",
"^.^.^.^.^.^.^.+.2.4.6.8.w.w.w.2.6.w.8.7.5.4.=.O.] ^.^.^.^.^.^.^.",
"^.^.^.^.^.^.^.] &.2.5.6.7.8.8.2.6.8.7.5.4.2.@._ ~ ^.^.^.^.^.^.^.",
"^.^.^.^.^.^.a o.( t ^ 4.7.7.7.2.4.7.5.4.=.! ! ] c ^.^.^.^.^.^.^.",
"^.^.^.^.^.^.^.^.[ o O ) 5.5.5.-.3.5.3.2.r X 8 :.s ^.^.^.^.^.^.^.",
"^.^.^.^.^.^.^.m ^.7   g 2.4.3.@.2.3.2.O.$   f ^.N ^.^.^.^.^.^.^.",
"^.^.^.^.^.^.^.U ^./ i ( &.-.-._ &.-.&.O.e i ^.^.U ^.^.^.^.^.^.^.",
"^.^.^.^.^.^.^.Z ^.^.,.] ] _ _ ^ _ +._ ) ' ^.^.^.H ^.^.^.^.^.^.^.",
"^.^.^.^.^.^.^.B ^.^.^.^.:.` ^ ! ^ ) ) | ^.^.^.^.^.^.^.^.^.^.^.^.",
"^.^.^.^.^.^.J ^.^.^.^.^.^.^.:.z ] #.^.^.^.^.^.^.C ^.^.^.^.^.^.^.",
"^.^.^.^.^.^.^.^.^.^.^.^.^.^.^.^.^.^.^.^.^.^.^.^.^.^.^.^.^.^.^.^."
};
